<?xml version="1.0" encoding="UTF-8"?>
<svg xmlns="http://www.w3.org/2000/svg" xmlns:xlink="http://www.w3.org/1999/xlink" width="30pt" height="30.000001pt" viewBox="0 0 30 30.000001" version="1.2">
<defs>
<clipPath id="clip1">
  <path d="M 1.210938 5 L 25 5 L 25 27.816406 L 1.210938 27.816406 Z M 1.210938 5 "/>
</clipPath>
<clipPath id="clip2">
  <path d="M 5 4.59375 L 28.789062 4.59375 L 28.789062 24 L 5 24 Z M 5 4.59375 "/>
</clipPath>
</defs>
<g id="surface1">
<g clip-path="url(#clip1)" clip-rule="nonzero">
<path style=" stroke:none;fill-rule:nonzero;fill:rgb(0%,29.019165%,67.83905%);fill-opacity:1;" d="M 22.398438 15.65625 C 22.417969 15.917969 22.429688 16.179688 22.429688 16.445312 C 22.429688 21.785156 18.054688 26.125 12.675781 26.125 C 7.296875 26.125 2.921875 21.785156 2.921875 16.445312 C 2.921875 11.109375 7.296875 6.769531 12.675781 6.769531 C 15.800781 6.769531 18.585938 8.234375 20.375 10.507812 L 21.484375 9.183594 C 19.378906 6.675781 16.214844 5.078125 12.675781 5.078125 C 6.359375 5.078125 1.21875 10.179688 1.21875 16.445312 C 1.21875 22.714844 6.359375 27.816406 12.675781 27.816406 C 18.996094 27.816406 24.132812 22.714844 24.132812 16.445312 C 24.132812 15.582031 24.035156 14.738281 23.847656 13.925781 L 22.398438 15.65625 "/>
</g>
<g clip-path="url(#clip2)" clip-rule="nonzero">
<path style=" stroke:none;fill-rule:nonzero;fill:rgb(0%,29.019165%,67.83905%);fill-opacity:1;" d="M 13.636719 23.800781 C 13.632812 23.800781 13.628906 23.800781 13.621094 23.800781 C 13.179688 23.792969 12.761719 23.59375 12.484375 23.246094 L 5.460938 14.480469 C 4.957031 13.847656 5.0625 12.929688 5.699219 12.429688 C 6.335938 11.925781 7.261719 12.03125 7.765625 12.664062 L 13.664062 20.023438 L 25.992188 5.296875 C 26.511719 4.675781 27.4375 4.589844 28.0625 5.105469 C 28.6875 5.621094 28.773438 6.542969 28.253906 7.164062 L 14.769531 23.273438 C 14.488281 23.605469 14.074219 23.800781 13.636719 23.800781 "/>
</g>
</g>
</svg>
