<?xml version="1.0" encoding="UTF-8"?>
<svg xmlns="http://www.w3.org/2000/svg" xmlns:xlink="http://www.w3.org/1999/xlink" width="30pt" height="30.000001pt" viewBox="0 0 30 30.000001" version="1.2">
<defs>
<clipPath id="clip1">
  <path d="M 0.484375 7.339844 L 29.515625 7.339844 L 29.515625 23.304688 L 0.484375 23.304688 Z M 0.484375 7.339844 "/>
</clipPath>
</defs>
<g id="surface1">
<g clip-path="url(#clip1)" clip-rule="nonzero">
<path style=" stroke:none;fill-rule:nonzero;fill:rgb(96.859741%,57.649231%,10.198975%);fill-opacity:1;" d="M 15.175781 23.300781 C 10.308594 23.300781 5.519531 20.828125 0.9375 15.949219 L 0.484375 15.464844 L 0.894531 14.941406 C 1.136719 14.628906 6.929688 7.34375 15.214844 7.34375 C 20.097656 7.34375 24.769531 9.890625 29.105469 14.910156 L 29.515625 15.386719 L 29.140625 15.886719 C 28.910156 16.1875 23.46875 23.300781 15.175781 23.300781 Z M 2.511719 15.390625 C 6.644531 19.621094 10.902344 21.761719 15.175781 21.761719 C 21.53125 21.761719 26.191406 16.992188 27.542969 15.4375 C 23.628906 11.085938 19.484375 8.882812 15.214844 8.882812 C 8.867188 8.882812 3.957031 13.777344 2.511719 15.390625 Z M 2.511719 15.390625 "/>
</g>
<path style=" stroke:none;fill-rule:nonzero;fill:rgb(96.859741%,57.649231%,10.198975%);fill-opacity:1;" d="M 15.011719 10.417969 C 12.351562 10.417969 10.195312 12.613281 10.195312 15.320312 C 10.195312 18.03125 12.351562 20.226562 15.011719 20.226562 C 17.671875 20.226562 19.832031 18.03125 19.832031 15.320312 C 19.832031 12.613281 17.671875 10.417969 15.011719 10.417969 Z M 15.011719 17.382812 C 13.894531 17.382812 12.988281 16.460938 12.988281 15.324219 C 12.988281 14.183594 13.894531 13.261719 15.011719 13.261719 C 16.128906 13.261719 17.035156 14.183594 17.035156 15.324219 C 17.035156 16.460938 16.128906 17.382812 15.011719 17.382812 Z M 15.011719 17.382812 "/>
</g>
</svg>
