<?xml version="1.0" encoding="UTF-8"?>
<svg xmlns="http://www.w3.org/2000/svg" xmlns:xlink="http://www.w3.org/1999/xlink" width="30pt" height="30.000001pt" viewBox="0 0 30 30.000001" version="1.2">
<defs>
<clipPath id="clip1">
  <path d="M 5.699219 0.492188 L 24.570312 0.492188 L 24.570312 28.800781 L 5.699219 28.800781 Z M 5.699219 0.492188 "/>
</clipPath>
</defs>
<g id="surface1">
<g clip-path="url(#clip1)" clip-rule="nonzero">
<path style=" stroke:none;fill-rule:evenodd;fill:rgb(96.859741%,57.649231%,10.198975%);fill-opacity:1;" d="M 17.179688 25.847656 C 17.179688 26.773438 17.179688 27.722656 17.179688 28.726562 C 15.734375 28.726562 14.386719 28.726562 12.941406 28.726562 C 12.941406 27.765625 12.941406 26.816406 12.941406 25.820312 C 8.925781 24.660156 6.1875 22.402344 5.699219 17.953125 C 7.265625 17.953125 8.714844 17.953125 10.246094 17.953125 C 10.601562 19.351562 11.117188 20.703125 12.824219 21.242188 C 12.824219 19.585938 12.824219 18.003906 12.824219 16.355469 C 9.324219 15.667969 6.148438 14.503906 6.042969 10.167969 C 5.960938 6.90625 8.066406 4.886719 12.871094 3.398438 C 12.871094 2.496094 12.871094 1.578125 12.871094 0.566406 C 14.304688 0.566406 15.671875 0.566406 17.136719 0.566406 C 17.136719 1.5 17.136719 2.414062 17.136719 3.390625 C 21.09375 4.25 23.847656 6.199219 24.140625 10.621094 C 22.570312 10.621094 21.148438 10.621094 19.6875 10.621094 C 19.316406 9.347656 18.800781 8.207031 17.234375 7.929688 C 17.234375 9.46875 17.234375 10.917969 17.234375 12.359375 C 22.769531 13.617188 24.59375 15.191406 24.570312 18.667969 C 24.550781 22.199219 21.800781 24.894531 17.179688 25.847656 Z M 17.234375 17 C 17.234375 18.5 17.234375 19.910156 17.234375 21.328125 C 19.121094 21.085938 20.289062 20.144531 20.203125 18.964844 C 20.121094 17.828125 19.042969 17.097656 17.234375 17 Z M 12.925781 7.9375 C 11.320312 8.25 10.5625 9.039062 10.679688 10.164062 C 10.78125 11.140625 11.535156 11.671875 12.925781 11.6875 C 12.925781 10.464844 12.925781 9.246094 12.925781 7.9375 Z M 12.925781 7.9375 "/>
</g>
</g>
</svg>
