<?xml version="1.0" encoding="UTF-8"?>
<svg xmlns="http://www.w3.org/2000/svg" xmlns:xlink="http://www.w3.org/1999/xlink" width="30pt" height="30.000001pt" viewBox="0 0 30 30.000001" version="1.2">
<defs>
<clipPath id="clip1">
  <path d="M 1.972656 1.488281 L 28.101562 1.488281 L 28.101562 27.617188 L 1.972656 27.617188 Z M 1.972656 1.488281 "/>
</clipPath>
</defs>
<g id="surface1">
<g clip-path="url(#clip1)" clip-rule="nonzero">
<path style=" stroke:none;fill-rule:nonzero;fill:rgb(0%,29.019165%,67.83905%);fill-opacity:1;" d="M 15.03125 1.488281 C 7.8125 1.488281 1.972656 7.335938 1.972656 14.550781 C 1.972656 21.769531 7.8125 27.617188 15.03125 27.617188 C 22.246094 27.617188 28.101562 21.769531 28.101562 14.550781 C 28.101562 7.335938 22.246094 1.488281 15.03125 1.488281 Z M 15.035156 25.003906 C 9.261719 25.003906 4.585938 20.328125 4.585938 14.550781 C 4.585938 8.777344 9.261719 4.101562 15.035156 4.101562 C 20.8125 4.101562 25.488281 8.777344 25.488281 14.550781 C 25.488281 20.328125 20.8125 25.003906 15.035156 25.003906 Z M 15.035156 25.003906 "/>
</g>
<path style=" stroke:none;fill-rule:nonzero;fill:rgb(0%,29.019165%,67.83905%);fill-opacity:1;" d="M 15.691406 8.019531 L 13.730469 8.019531 L 13.730469 15.859375 L 20.582031 19.972656 L 21.570312 18.367188 L 15.691406 14.878906 Z M 15.691406 8.019531 "/>
</g>
</svg>
